<svg xmlns="http://www.w3.org/2000/svg" width="32" height="32" viewBox="0 0 32 32">
  <defs>
    <linearGradient id="gradient1" x1="0%" y1="0%" x2="100%" y2="100%">
      <stop offset="0%" style="stop-color:#0d9488" />
      <stop offset="100%" style="stop-color:#042f2e" />
    </linearGradient>
    <linearGradient id="gradient2" x1="0%" y1="0%" x2="100%" y2="100%">
      <stop offset="0%" style="stop-color:#0f766e" />
      <stop offset="100%" style="stop-color:#134e4a" />
    </linearGradient>
  </defs>
  
  <!-- Book base -->
  <path fill="url(#gradient1)" d="M26 3H8C6.9 3 6 3.9 6 5v22c0 1.1.9 2 2 2h18c1.1 0 2-.9 2-2V5c0-1.1-.9-2-2-2z"/>
  
  <!-- Book pages -->
  <path fill="#ffffff" opacity="0.9" d="M24 5H8c-.6 0-1 .4-1 1v18c0 .6.4 1 1 1h16c.6 0 1-.4 1-1V6c0-.6-.4-1-1-1z"/>
  
  <!-- Translation arrows -->
  <path fill="url(#gradient2)" d="M19 9l-2 2h4l-2-2zm-6 8l2-2h-4l2 2z"/>
  
  <!-- Text lines -->
  <path fill="#0d9488" d="M12 12h8v1h-8zm0 3h8v1h-8zm0 3h6v1h-6z"/>
</svg>